<?xml version="1.0" encoding="UTF-8"?>
<svg id="Layer_1" data-name="Layer 1" xmlns="http://www.w3.org/2000/svg" viewBox="0 0 159.98 137.35">
  <defs>
    <style>
      .cls-1 {
        stroke-width: .79px;
      }

      .cls-1, .cls-2, .cls-3, .cls-4, .cls-5 {
        stroke: #231f20;
        stroke-linejoin: round;
      }

      .cls-1, .cls-3, .cls-4 {
        fill: #f7dc6a;
      }

      .cls-2 {
        fill: #fff;
      }

      .cls-2, .cls-5 {
        stroke-width: 3.98px;
      }

      .cls-3 {
        stroke-width: 1.78px;
      }

      .cls-4 {
        stroke-width: 1.1px;
      }

      .cls-6 {
        fill: #91b02c;
      }

      .cls-5, .cls-7 {
        fill: #f9d408;
      }

      .cls-8, .cls-9 {
        fill: #afd136;
      }

      .cls-8, .cls-10 {
        opacity: .5;
      }
    </style>
  </defs>
  <path class="cls-3" d="M66.85,34.83l22.42-20.87,8.08,8.68c7.53-15.11,23.65,3.64,8.08,8.68l8.08,8.68-8.68,8.08c-5.76-14.88-23.12,1.27-8.68,8.08l-8.68,8.08-20.88-22.41c-1.86-2-1.75-5.12.25-6.98Z"/>
  <path class="cls-4" d="M127.31,82.58l-12.92-13.87,5.37-5c-9.35-4.66,2.25-14.63,5.37-5l5.37-5,5,5.37c-9.21,3.56.79,14.3,5,5.37l5,5.37-13.87,12.91c-1.24,1.15-3.17,1.08-4.32-.15Z"/>
  <path class="cls-1" d="M70.12,77.31l-9.98,9.29-3.6-3.86c-3.35,6.73-10.53-1.62-3.6-3.86l-3.6-3.86,3.86-3.6c2.57,6.63,10.3-.57,3.86-3.6l3.86-3.6,9.3,9.98c.83.89.78,2.28-.11,3.11Z"/>
  <g class="cls-10">
    <path class="cls-6" d="M64.39,16.9c9.02,1.93,6.61,6.69-.28.56-1.94,9.02-6.69,6.61-.56-.28-9.02-1.93-6.61-6.69.28-.56,1.94-9.02,6.69-6.61.56.28Z"/>
    <circle class="cls-9" cx="63.97" cy="17.04" r="1.84"/>
  </g>
  <g class="cls-10">
    <path class="cls-6" d="M101.99,68.06c5.74,1.23,4.21,4.25-.18.36-1.23,5.74-4.26,4.21-.36-.18-5.74-1.23-4.21-4.25.18-.36,1.23-5.74,4.26-4.21.36.18Z"/>
    <circle class="cls-9" cx="101.72" cy="68.15" r="1.17"/>
  </g>
  <path class="cls-8" d="M140.91,27.47c-4.77.64-5.6,1.47-6.24,6.24-.02.17-.27.17-.29,0-.64-4.76-1.47-5.59-6.24-6.24-.17-.02-.17-.27,0-.29,4.77-.64,5.6-1.47,6.24-6.24.02-.17.27-.17.29,0,.64,4.76,1.47,5.59,6.24,6.24.17.02.17.27,0,.29Z"/>
  <path class="cls-8" d="M141.01,32.09c-1.3.18-1.53.4-1.7,1.7,0,.05-.07.05-.08,0-.18-1.3-.4-1.53-1.7-1.7-.05,0-.05-.07,0-.08,1.3-.18,1.53-.4,1.7-1.7,0-.05.07-.05.08,0,.18,1.3.4,1.53,1.7,1.7.05,0,.05.07,0,.08Z"/>
  <g>
    <path class="cls-2" d="M40.58,76.67h117.41v53.68c0,2.76-2.24,5-5,5H45.58c-2.76,0-5-2.24-5-5v-53.68h0Z"/>
    <rect class="cls-7" x="88.61" y="78.67" width="21.35" height="54.7"/>
  </g>
  <g>
    <g>
      <path class="cls-5" d="M29.69,73.33l6.89,8.81c1.73,2.21,1.34,5.4-.87,7.13l-18.63,14.56c-2.21,1.73-5.4,1.34-7.13-.87l-6.89-8.81c-1.73-2.21-1.34-5.4.87-7.13l18.63-14.56c2.21-1.73,5.4-1.34,7.13.87Z"/>
      <path class="cls-5" d="M39.75,54.11l-8.82,6.89c-2.21,1.73-5.4,1.34-7.13-.87l-14.57-18.62c-1.73-2.21-1.34-5.4.87-7.13l8.82-6.89c2.21-1.73,5.4-1.34,7.13.87l14.57,18.62c1.73,2.21,1.34,5.4-.87,7.13Z"/>
      <rect class="cls-2" x="-32.93" y="59.48" width="131.59" height="17.79" transform="translate(-39 92.69) rotate(-83.02)"/>
    </g>
    <rect class="cls-7" x="22.2" y="61.46" width="21.34" height="13.83" transform="translate(-38.99 92.7) rotate(-83.02)"/>
  </g>
</svg>